Coordinates
version=1
nRows=7
nColumns=40
inDegrees=yes

Units are S.I. units (second, meters, Newtons, ...)
Angles are in degrees.

endheader
time	pelvis_tilt	pelvis_list	pelvis_rotation	pelvis_tx	pelvis_ty	pelvis_tz	hip_flexion_r	hip_adduction_r	hip_rotation_r	knee_angle_r	knee_angle_r_beta	ankle_angle_r	subtalar_angle_r	mtp_angle_r	hip_flexion_l	hip_adduction_l	hip_rotation_l	knee_angle_l	knee_angle_l_beta	ankle_angle_l	subtalar_angle_l	mtp_angle_l	lumbar_extension	lumbar_bending	lumbar_rotation	arm_flex_r	arm_add_r	arm_rot_r	elbow_flex_r	pro_sup_r	wrist_flex_r	wrist_dev_r	arm_flex_l	arm_add_l	arm_rot_l	elbow_flex_l	pro_sup_l	wrist_flex_l	wrist_dev_l
      0.42000000	     -2.66920067	      2.10958914	     -2.53891668	     -0.50132826	      0.88762579	      1.13453992	     10.92229284	     -8.11029306	     -8.26025036	    -63.24014298	     -1.10374871	    -14.60133130	    -17.75940532	      6.97606705	     21.75129243	     -1.93518691	     13.89982751	    -31.29032184	     -0.54611914	      8.72675865	     12.56241544	      2.88617542	     -3.04198217	     -4.39837708	      0.39538216	     -2.76375849	     -8.73769797	    -12.65908554	     35.55156153	     89.95437384	      0.00000000	      0.00000000	     -4.05421431	      9.03228058	     11.92727779	     23.27378671	     89.95437384	      0.00000000	      0.00000000
      0.43000000	     -2.68964009	      2.48470960	     -2.40120906	     -0.49246293	      0.88816377	      1.13329728	     12.74507240	     -8.58090102	     -8.17210389	    -65.25099214	     -1.13884465	    -11.80007596	    -18.09622747	     22.98166319	     20.90253141	     -2.62881044	     13.62451227	    -30.81827340	     -0.53788034	      9.25665370	     12.45289194	      4.02630740	     -3.12703388	     -4.84083733	     -0.05240104	     -2.43360663	     -8.67442465	    -11.92370799	     34.11966746	     89.95437384	      0.00000000	      0.00000000	     -3.38902667	      9.28518460	     12.01814334	     24.14992605	     89.95437384	      0.00000000	      0.00000000
      0.44000000	     -2.47520512	      2.33498573	     -2.08457945	     -0.48336685	      0.88911895	      1.13215110	     13.93350476	     -8.41948505	     -8.20776502	    -66.45015864	     -1.15977406	    -11.00401587	    -18.40714042	     22.73581153	     19.85507703	     -2.65907958	     13.47002521	    -30.57672662	     -0.53366455	      9.77862566	     12.03220645	      3.90691009	     -3.50890448	     -4.68353680	     -0.50801829	     -2.35802870	     -8.59860558	    -11.73486835	     33.15692224	     89.95437384	      0.00000000	      0.00000000	     -2.45454035	      9.45971944	     12.04697843	     24.71531633	     89.95437384	      0.00000000	      0.00000000
      0.45000000	     -2.29676022	      2.09809303	     -1.67577838	     -0.47444190	      0.88998191	      1.13092309	     15.15380662	     -8.19735000	     -8.39882060	    -67.43212300	     -1.17691257	    -10.40675559	    -18.54523639	     22.39592608	     18.91711827	     -2.54573349	     13.45744770	    -30.42346599	     -0.53098965	      9.97532717	     11.76313676	      3.82775382	     -3.88601909	     -4.40877290	     -0.97844671	     -2.49182491	     -8.55308916	    -11.63692416	     32.60511457	     89.95437384	      0.00000000	      0.00000000	     -1.49329483	      9.62412523	     12.05685380	     25.34316974	     89.95437384	      0.00000000	      0.00000000
      0.46000000	     -2.17888045	      1.90748672	     -1.31086582	     -0.46540903	      0.89075153	      1.12979584	     16.39373057	     -7.98768130	     -8.54821828	    -68.16475292	     -1.18969937	     -9.47777524	    -18.69863070	     22.10880037	     17.98402784	     -2.49427556	     13.31227437	    -30.14640974	     -0.52615411	     10.34379564	     11.42577521	      3.71558718	     -4.13166818	     -4.19412607	     -1.46661343	     -2.49799412	     -8.48431873	    -11.52194284	     31.75610197	     89.95437384	      0.00000000	      0.00000000	     -0.58422782	      9.83345155	     12.06266030	     25.97616576	     89.95437384	      0.00000000	      0.00000000
      0.47000000	     -2.14070786	      1.76219079	     -0.81468864	     -0.45638874	      0.89147133	      1.12877222	     17.59064607	     -7.69370341	     -8.64665805	    -68.55054355	     -1.19643269	     -7.87260602	    -18.65228848	     21.87013090	     17.10929037	     -2.55565570	     12.79127952	    -29.85177814	     -0.52101182	     10.88096322	     10.92774348	      3.53902663	     -4.26272319	     -4.06651398	     -2.09758532	     -2.36899312	     -8.33347702	    -11.47630989	     30.53912538	     89.95437384	      0.00000000	      0.00000000	      0.25318155	     10.08397163	     12.16886252	     26.68226858	     89.95437384	      0.00000000	      0.00000000
      0.48000000	     -2.09815698	      1.57313933	     -0.25373782	     -0.44741021	      0.89217675	      1.12757800	     18.72588548	     -7.45137156	     -8.94825881	    -68.66918725	     -1.19850341	     -6.47633093	    -18.53092798	     21.69287358	     16.28072028	     -2.53545166	     12.42496091	    -29.60252373	     -0.51666151	     11.23797612	     10.51535167	      3.38670743	     -4.41090973	     -3.86388130	     -2.77218842	     -2.36400549	     -8.17587249	    -11.49372330	     29.58835827	     89.95437384	      0.00000000	      0.00000000	      1.08159861	     10.31958501	     12.21514988	     27.46100023	     89.95437384	      0.00000000	      0.00000000
